<?xml version="1.0" standalone="no"?>
<!DOCTYPE svg PUBLIC "-//W3C//DTD SVG 20010904//EN"
 "http://www.w3.org/TR/2001/REC-SVG-20010904/DTD/svg10.dtd">
<svg version="1.0" xmlns="http://www.w3.org/2000/svg"
 width="225.000000pt" height="225.000000pt" viewBox="0 0 225.000000 225.000000"
 preserveAspectRatio="xMidYMid meet">

<g transform="translate(0.000000,225.000000) scale(0.100000,-0.100000)"
fill="#276749" stroke="none">
<path d="M1091 1983 c-8 -3 -180 -115 -383 -249 -368 -243 -369 -244 -366
-277 l3 -32 118 -3 c108 -2 118 -4 112 -20 -86 -205 -84 -344 12 -559 4 -9
-26 -13 -119 -15 l-123 -3 -3 -32 c-3 -33 -2 -34 370 -280 331 -219 377 -247
413 -247 36 0 82 28 413 247 372 246 373 247 370 280 l-3 32 -122 3 c-68 1
-123 5 -123 8 0 3 9 22 19 42 60 118 73 313 29 437 -14 39 -28 78 -32 87 -7
16 3 18 111 20 l118 3 3 32 c3 33 2 34 -369 279 -357 236 -409 264 -448 247z
m138 -404 c74 -17 149 -58 212 -116 69 -64 103 -118 130 -204 24 -76 27 -209
4 -209 -8 0 -19 17 -26 43 -70 265 -409 384 -619 217 -142 -112 -182 -338 -89
-499 14 -24 17 -37 9 -45 -18 -18 -97 71 -142 161 -36 72 -41 92 -46 171 -8
147 39 266 145 368 50 47 142 97 209 113 53 12 160 13 213 0z m82 -328 c60
-31 115 -86 147 -146 23 -43 27 -62 27 -135 0 -70 -4 -93 -24 -130 -44 -85
-79 -104 -59 -32 14 49 4 130 -21 180 -95 186 -363 205 -477 32 -34 -51 -50
-40 -34 21 30 112 109 194 220 230 48 16 174 4 221 -20z m-106 -230 c78 -36
115 -95 115 -184 0 -81 -13 -88 -42 -25 -38 82 -114 121 -196 99 -47 -13 -107
-74 -117 -120 -13 -59 -35 -25 -35 54 1 139 149 234 275 176z"/>
</g>
</svg>
