<?xml version="1.0" encoding="UTF-8"?>
<svg xmlns="http://www.w3.org/2000/svg" xmlns:xlink="http://www.w3.org/1999/xlink" width="600px" height="600px" viewBox="0 0 600 599" version="1.1">
<g id="surface1">
<path style=" stroke:none;fill-rule:nonzero;fill:rgb(15.294118%,40.392157%,28.627451%);fill-opacity:1;" d="M 291.191406 71.144531 C 289.058594 71.945312 243.148438 101.789062 188.96875 137.492188 C 90.746094 202.242188 90.480469 202.507812 91.28125 211.300781 L 92.082031 219.828125 L 123.578125 220.628906 C 152.402344 221.160156 155.070312 221.695312 153.46875 225.957031 C 130.515625 280.582031 131.050781 317.621094 156.671875 374.90625 C 157.738281 377.304688 149.734375 378.371094 124.910156 378.90625 L 92.082031 379.703125 L 91.28125 388.230469 C 90.480469 397.023438 90.746094 397.289062 190.035156 462.839844 C 278.378906 521.195312 290.660156 528.65625 300.265625 528.65625 C 309.875 528.65625 322.152344 521.195312 410.5 462.839844 C 509.785156 397.289062 510.054688 397.023438 509.253906 388.230469 L 508.453125 379.703125 L 475.890625 378.90625 C 457.738281 378.636719 443.058594 377.574219 443.058594 376.773438 C 443.058594 375.972656 445.460938 370.910156 448.132812 365.582031 C 464.144531 334.140625 467.617188 282.179688 455.871094 249.140625 C 452.136719 238.746094 448.398438 228.355469 447.332031 225.957031 C 445.460938 221.695312 448.132812 221.160156 476.957031 220.628906 L 508.453125 219.828125 L 509.253906 211.300781 C 510.054688 202.507812 509.785156 202.242188 410.765625 136.960938 C 315.480469 74.074219 301.601562 66.613281 291.191406 71.144531 Z M 328.023438 178.792969 C 347.777344 183.324219 367.792969 194.25 384.609375 209.703125 C 403.023438 226.757812 412.101562 241.144531 419.304688 264.0625 C 425.710938 284.3125 426.511719 319.75 420.375 319.75 C 418.238281 319.75 415.300781 315.222656 413.433594 308.292969 C 394.75 237.679688 304.269531 205.972656 248.21875 250.472656 C 210.320312 280.316406 199.644531 340.535156 224.464844 383.433594 C 228.203125 389.828125 229.003906 393.292969 226.867188 395.425781 C 222.0625 400.222656 200.980469 376.507812 188.96875 352.523438 C 179.359375 333.339844 178.023438 328.011719 176.691406 306.960938 C 174.554688 267.792969 187.101562 236.082031 215.390625 208.902344 C 228.738281 196.378906 253.292969 183.058594 271.175781 178.792969 C 285.320312 175.597656 313.878906 175.328125 328.023438 178.792969 Z M 349.910156 266.191406 C 365.925781 274.453125 380.605469 289.109375 389.144531 305.09375 C 395.285156 316.554688 396.351562 321.617188 396.351562 341.066406 C 396.351562 359.71875 395.285156 365.847656 389.945312 375.707031 C 378.203125 398.355469 368.859375 403.417969 374.199219 384.234375 C 377.9375 371.175781 375.265625 349.59375 368.59375 336.269531 C 343.238281 286.710938 271.707031 281.648438 241.28125 327.746094 C 232.207031 341.335938 227.9375 338.402344 232.207031 322.148438 C 240.214844 292.304688 261.300781 270.457031 290.925781 260.863281 C 303.738281 256.601562 337.367188 259.796875 349.910156 266.191406 Z M 321.621094 327.476562 C 342.4375 337.070312 352.3125 352.792969 352.3125 376.507812 C 352.3125 398.089844 348.84375 399.953125 341.101562 383.167969 C 330.960938 361.320312 310.675781 350.925781 288.789062 356.789062 C 276.246094 360.253906 260.230469 376.507812 257.5625 388.765625 C 254.09375 404.484375 248.21875 395.425781 248.21875 374.375 C 248.488281 337.335938 287.988281 312.023438 321.621094 327.476562 Z M 321.621094 327.476562 "/>
</g>
</svg>
